<?xml version="1.0" standalone="no"?>
<!DOCTYPE svg PUBLIC "-//W3C//DTD SVG 1.1//EN" "http://www.w3.org/Graphics/SVG/1.1/DTD/svg11.dtd">
<svg width="554.3mm" height="795.22mm">
<circle cx="8.89mm" cy="8.89mm" r="6.35mm" fill="black" stoke-width="0"/>
<circle cx="40.45mm" cy="8.89mm" r="8.89mm" fill="black" stoke-width="0"/>
<circle cx="72.01mm" cy="8.89mm" r="6.35mm" fill="black" stoke-width="0"/>
<circle cx="103.57mm" cy="8.89mm" r="6.35mm" fill="black" stoke-width="0"/>
<circle cx="135.13mm" cy="8.89mm" r="8.89mm" fill="black" stoke-width="0"/>
<circle cx="166.69mm" cy="8.89mm" r="8.89mm" fill="black" stoke-width="0"/>
<circle cx="198.25mm" cy="8.89mm" r="6.35mm" fill="black" stoke-width="0"/>
<circle cx="229.81mm" cy="8.89mm" r="6.35mm" fill="black" stoke-width="0"/>
<circle cx="261.37mm" cy="8.89mm" r="8.89mm" fill="black" stoke-width="0"/>
<circle cx="292.93mm" cy="8.89mm" r="8.89mm" fill="black" stoke-width="0"/>
<circle cx="324.49mm" cy="8.89mm" r="8.89mm" fill="black" stoke-width="0"/>
<circle cx="356.05mm" cy="8.89mm" r="6.35mm" fill="black" stoke-width="0"/>
<circle cx="387.61mm" cy="8.89mm" r="8.89mm" fill="black" stoke-width="0"/>
<circle cx="419.17mm" cy="8.89mm" r="6.35mm" fill="black" stoke-width="0"/>
<circle cx="450.73mm" cy="8.89mm" r="8.89mm" fill="black" stoke-width="0"/>
<circle cx="482.29mm" cy="8.89mm" r="6.35mm" fill="black" stoke-width="0"/>
<circle cx="513.85mm" cy="8.89mm" r="8.89mm" fill="black" stoke-width="0"/>
<circle cx="545.41mm" cy="8.89mm" r="6.35mm" fill="black" stoke-width="0"/>
<circle cx="8.89mm" cy="40.45mm" r="6.35mm" fill="black" stoke-width="0"/>
<circle cx="40.45mm" cy="40.45mm" r="8.89mm" fill="black" stoke-width="0"/>
<circle cx="72.01mm" cy="40.45mm" r="6.35mm" fill="black" stoke-width="0"/>
<circle cx="103.57mm" cy="40.45mm" r="8.89mm" fill="black" stoke-width="0"/>
<circle cx="135.13mm" cy="40.45mm" r="8.89mm" fill="black" stoke-width="0"/>
<circle cx="166.69mm" cy="40.45mm" r="6.35mm" fill="black" stoke-width="0"/>
<circle cx="198.25mm" cy="40.45mm" r="6.35mm" fill="black" stoke-width="0"/>
<circle cx="229.81mm" cy="40.45mm" r="6.35mm" fill="black" stoke-width="0"/>
<circle cx="261.37mm" cy="40.45mm" r="8.89mm" fill="black" stoke-width="0"/>
<circle cx="292.93mm" cy="40.45mm" r="8.89mm" fill="black" stoke-width="0"/>
<circle cx="324.49mm" cy="40.45mm" r="6.35mm" fill="black" stoke-width="0"/>
<circle cx="356.05mm" cy="40.45mm" r="8.89mm" fill="black" stoke-width="0"/>
<circle cx="387.61mm" cy="40.45mm" r="8.89mm" fill="black" stoke-width="0"/>
<circle cx="419.17mm" cy="40.45mm" r="6.35mm" fill="black" stoke-width="0"/>
<circle cx="450.73mm" cy="40.45mm" r="6.35mm" fill="black" stoke-width="0"/>
<circle cx="482.29mm" cy="40.45mm" r="6.35mm" fill="black" stoke-width="0"/>
<circle cx="513.85mm" cy="40.45mm" r="8.89mm" fill="black" stoke-width="0"/>
<circle cx="545.41mm" cy="40.45mm" r="8.89mm" fill="black" stoke-width="0"/>
<circle cx="8.89mm" cy="72.01mm" r="8.89mm" fill="black" stoke-width="0"/>
<circle cx="40.45mm" cy="72.01mm" r="8.89mm" fill="black" stoke-width="0"/>
<circle cx="72.01mm" cy="72.01mm" r="6.35mm" fill="black" stoke-width="0"/>
<circle cx="103.57mm" cy="72.01mm" r="6.35mm" fill="black" stoke-width="0"/>
<circle cx="135.13mm" cy="72.01mm" r="6.35mm" fill="black" stoke-width="0"/>
<circle cx="166.69mm" cy="72.01mm" r="6.35mm" fill="black" stoke-width="0"/>
<circle cx="198.25mm" cy="72.01mm" r="6.35mm" fill="black" stoke-width="0"/>
<circle cx="229.81mm" cy="72.01mm" r="6.35mm" fill="black" stoke-width="0"/>
<circle cx="261.37mm" cy="72.01mm" r="8.89mm" fill="black" stoke-width="0"/>
<circle cx="292.93mm" cy="72.01mm" r="8.89mm" fill="black" stoke-width="0"/>
<circle cx="324.49mm" cy="72.01mm" r="6.35mm" fill="black" stoke-width="0"/>
<circle cx="356.05mm" cy="72.01mm" r="8.89mm" fill="black" stoke-width="0"/>
<circle cx="387.61mm" cy="72.01mm" r="8.89mm" fill="black" stoke-width="0"/>
<circle cx="419.17mm" cy="72.01mm" r="8.89mm" fill="black" stoke-width="0"/>
<circle cx="450.73mm" cy="72.01mm" r="8.89mm" fill="black" stoke-width="0"/>
<circle cx="482.29mm" cy="72.01mm" r="6.35mm" fill="black" stoke-width="0"/>
<circle cx="513.85mm" cy="72.01mm" r="6.35mm" fill="black" stoke-width="0"/>
<circle cx="545.41mm" cy="72.01mm" r="6.35mm" fill="black" stoke-width="0"/>
<circle cx="8.89mm" cy="103.57mm" r="6.35mm" fill="black" stoke-width="0"/>
<circle cx="40.45mm" cy="103.57mm" r="8.89mm" fill="black" stoke-width="0"/>
<circle cx="72.01mm" cy="103.57mm" r="6.35mm" fill="black" stoke-width="0"/>
<circle cx="103.57mm" cy="103.57mm" r="8.89mm" fill="black" stoke-width="0"/>
<circle cx="135.13mm" cy="103.57mm" r="8.89mm" fill="black" stoke-width="0"/>
<circle cx="166.69mm" cy="103.57mm" r="8.89mm" fill="black" stoke-width="0"/>
<circle cx="198.25mm" cy="103.57mm" r="6.35mm" fill="black" stoke-width="0"/>
<circle cx="229.81mm" cy="103.57mm" r="8.89mm" fill="black" stoke-width="0"/>
<circle cx="261.37mm" cy="103.57mm" r="6.35mm" fill="black" stoke-width="0"/>
<circle cx="292.93mm" cy="103.57mm" r="6.35mm" fill="black" stoke-width="0"/>
<circle cx="324.49mm" cy="103.57mm" r="8.89mm" fill="black" stoke-width="0"/>
<circle cx="356.05mm" cy="103.57mm" r="8.89mm" fill="black" stoke-width="0"/>
<circle cx="387.61mm" cy="103.57mm" r="6.35mm" fill="black" stoke-width="0"/>
<circle cx="419.17mm" cy="103.57mm" r="6.35mm" fill="black" stoke-width="0"/>
<circle cx="450.73mm" cy="103.57mm" r="8.89mm" fill="black" stoke-width="0"/>
<circle cx="482.29mm" cy="103.57mm" r="8.89mm" fill="black" stoke-width="0"/>
<circle cx="513.85mm" cy="103.57mm" r="6.35mm" fill="black" stoke-width="0"/>
<circle cx="545.41mm" cy="103.57mm" r="6.35mm" fill="black" stoke-width="0"/>
<circle cx="8.89mm" cy="135.13mm" r="6.35mm" fill="black" stoke-width="0"/>
<circle cx="40.45mm" cy="135.13mm" r="8.89mm" fill="black" stoke-width="0"/>
<circle cx="72.01mm" cy="135.13mm" r="6.35mm" fill="black" stoke-width="0"/>
<circle cx="103.57mm" cy="135.13mm" r="6.35mm" fill="black" stoke-width="0"/>
<circle cx="135.13mm" cy="135.13mm" r="6.35mm" fill="black" stoke-width="0"/>
<circle cx="166.69mm" cy="135.13mm" r="8.89mm" fill="black" stoke-width="0"/>
<circle cx="198.25mm" cy="135.13mm" r="6.35mm" fill="black" stoke-width="0"/>
<circle cx="229.81mm" cy="135.13mm" r="8.89mm" fill="black" stoke-width="0"/>
<circle cx="261.37mm" cy="135.13mm" r="8.89mm" fill="black" stoke-width="0"/>
<circle cx="292.93mm" cy="135.13mm" r="6.35mm" fill="black" stoke-width="0"/>
<circle cx="324.49mm" cy="135.13mm" r="8.89mm" fill="black" stoke-width="0"/>
<circle cx="356.05mm" cy="135.13mm" r="8.89mm" fill="black" stoke-width="0"/>
<circle cx="387.61mm" cy="135.13mm" r="6.35mm" fill="black" stoke-width="0"/>
<circle cx="419.17mm" cy="135.13mm" r="8.89mm" fill="black" stoke-width="0"/>
<circle cx="450.73mm" cy="135.13mm" r="8.89mm" fill="black" stoke-width="0"/>
<circle cx="482.29mm" cy="135.13mm" r="8.89mm" fill="black" stoke-width="0"/>
<circle cx="513.85mm" cy="135.13mm" r="8.89mm" fill="black" stoke-width="0"/>
<circle cx="545.41mm" cy="135.13mm" r="6.35mm" fill="black" stoke-width="0"/>
<circle cx="8.89mm" cy="166.69mm" r="8.89mm" fill="black" stoke-width="0"/>
<circle cx="40.45mm" cy="166.69mm" r="6.35mm" fill="black" stoke-width="0"/>
<circle cx="72.01mm" cy="166.69mm" r="6.35mm" fill="black" stoke-width="0"/>
<circle cx="103.57mm" cy="166.69mm" r="6.35mm" fill="black" stoke-width="0"/>
<circle cx="135.13mm" cy="166.69mm" r="8.89mm" fill="black" stoke-width="0"/>
<circle cx="166.69mm" cy="166.69mm" r="6.35mm" fill="black" stoke-width="0"/>
<circle cx="198.25mm" cy="166.69mm" r="8.89mm" fill="black" stoke-width="0"/>
<circle cx="229.81mm" cy="166.69mm" r="6.35mm" fill="black" stoke-width="0"/>
<circle cx="261.37mm" cy="166.69mm" r="6.35mm" fill="black" stoke-width="0"/>
<circle cx="292.93mm" cy="166.69mm" r="6.35mm" fill="black" stoke-width="0"/>
<circle cx="324.49mm" cy="166.69mm" r="8.89mm" fill="black" stoke-width="0"/>
<circle cx="356.05mm" cy="166.69mm" r="8.89mm" fill="black" stoke-width="0"/>
<circle cx="387.61mm" cy="166.69mm" r="8.89mm" fill="black" stoke-width="0"/>
<circle cx="419.17mm" cy="166.69mm" r="6.35mm" fill="black" stoke-width="0"/>
<circle cx="450.73mm" cy="166.69mm" r="6.35mm" fill="black" stoke-width="0"/>
<circle cx="482.29mm" cy="166.69mm" r="6.35mm" fill="black" stoke-width="0"/>
<circle cx="513.85mm" cy="166.69mm" r="6.35mm" fill="black" stoke-width="0"/>
<circle cx="545.41mm" cy="166.69mm" r="6.35mm" fill="black" stoke-width="0"/>
<circle cx="8.89mm" cy="198.25mm" r="8.89mm" fill="black" stoke-width="0"/>
<circle cx="40.45mm" cy="198.25mm" r="6.35mm" fill="black" stoke-width="0"/>
<circle cx="72.01mm" cy="198.25mm" r="8.89mm" fill="black" stoke-width="0"/>
<circle cx="103.57mm" cy="198.25mm" r="8.89mm" fill="black" stoke-width="0"/>
<circle cx="135.13mm" cy="198.25mm" r="6.35mm" fill="black" stoke-width="0"/>
<circle cx="166.69mm" cy="198.25mm" r="6.35mm" fill="black" stoke-width="0"/>
<circle cx="198.25mm" cy="198.25mm" r="8.89mm" fill="black" stoke-width="0"/>
<circle cx="229.81mm" cy="198.25mm" r="8.89mm" fill="black" stoke-width="0"/>
<circle cx="261.37mm" cy="198.25mm" r="6.35mm" fill="black" stoke-width="0"/>
<circle cx="292.93mm" cy="198.25mm" r="8.89mm" fill="black" stoke-width="0"/>
<circle cx="324.49mm" cy="198.25mm" r="8.89mm" fill="black" stoke-width="0"/>
<circle cx="356.05mm" cy="198.25mm" r="8.89mm" fill="black" stoke-width="0"/>
<circle cx="387.61mm" cy="198.25mm" r="6.35mm" fill="black" stoke-width="0"/>
<circle cx="419.17mm" cy="198.25mm" r="6.35mm" fill="black" stoke-width="0"/>
<circle cx="450.73mm" cy="198.25mm" r="8.89mm" fill="black" stoke-width="0"/>
<circle cx="482.29mm" cy="198.25mm" r="6.35mm" fill="black" stoke-width="0"/>
<circle cx="513.85mm" cy="198.25mm" r="6.35mm" fill="black" stoke-width="0"/>
<circle cx="545.41mm" cy="198.25mm" r="6.35mm" fill="black" stoke-width="0"/>
<circle cx="8.89mm" cy="229.81mm" r="6.35mm" fill="black" stoke-width="0"/>
<circle cx="40.45mm" cy="229.81mm" r="6.35mm" fill="black" stoke-width="0"/>
<circle cx="72.01mm" cy="229.81mm" r="6.35mm" fill="black" stoke-width="0"/>
<circle cx="103.57mm" cy="229.81mm" r="6.35mm" fill="black" stoke-width="0"/>
<circle cx="135.13mm" cy="229.81mm" r="8.89mm" fill="black" stoke-width="0"/>
<circle cx="166.69mm" cy="229.81mm" r="6.35mm" fill="black" stoke-width="0"/>
<circle cx="198.25mm" cy="229.81mm" r="8.89mm" fill="black" stoke-width="0"/>
<circle cx="229.81mm" cy="229.81mm" r="6.35mm" fill="black" stoke-width="0"/>
<circle cx="261.37mm" cy="229.81mm" r="6.35mm" fill="black" stoke-width="0"/>
<circle cx="292.93mm" cy="229.81mm" r="6.35mm" fill="black" stoke-width="0"/>
<circle cx="324.49mm" cy="229.81mm" r="6.35mm" fill="black" stoke-width="0"/>
<circle cx="356.05mm" cy="229.81mm" r="6.35mm" fill="black" stoke-width="0"/>
<circle cx="387.61mm" cy="229.81mm" r="6.35mm" fill="black" stoke-width="0"/>
<circle cx="419.17mm" cy="229.81mm" r="6.35mm" fill="black" stoke-width="0"/>
<circle cx="450.73mm" cy="229.81mm" r="8.89mm" fill="black" stoke-width="0"/>
<circle cx="482.29mm" cy="229.81mm" r="6.35mm" fill="black" stoke-width="0"/>
<circle cx="513.85mm" cy="229.81mm" r="8.89mm" fill="black" stoke-width="0"/>
<circle cx="545.41mm" cy="229.81mm" r="6.35mm" fill="black" stoke-width="0"/>
<circle cx="8.89mm" cy="261.37mm" r="8.89mm" fill="black" stoke-width="0"/>
<circle cx="40.45mm" cy="261.37mm" r="6.35mm" fill="black" stoke-width="0"/>
<circle cx="72.01mm" cy="261.37mm" r="6.35mm" fill="black" stoke-width="0"/>
<circle cx="103.57mm" cy="261.37mm" r="8.89mm" fill="black" stoke-width="0"/>
<circle cx="135.13mm" cy="261.37mm" r="8.89mm" fill="black" stoke-width="0"/>
<circle cx="166.69mm" cy="261.37mm" r="8.89mm" fill="black" stoke-width="0"/>
<circle cx="198.25mm" cy="261.37mm" r="8.89mm" fill="black" stoke-width="0"/>
<circle cx="229.81mm" cy="261.37mm" r="6.35mm" fill="black" stoke-width="0"/>
<circle cx="261.37mm" cy="261.37mm" r="6.35mm" fill="black" stoke-width="0"/>
<circle cx="292.93mm" cy="261.37mm" r="8.89mm" fill="black" stoke-width="0"/>
<circle cx="324.49mm" cy="261.37mm" r="6.35mm" fill="black" stoke-width="0"/>
<circle cx="356.05mm" cy="261.37mm" r="8.89mm" fill="black" stoke-width="0"/>
<circle cx="387.61mm" cy="261.37mm" r="6.35mm" fill="black" stoke-width="0"/>
<circle cx="419.17mm" cy="261.37mm" r="6.35mm" fill="black" stoke-width="0"/>
<circle cx="450.73mm" cy="261.37mm" r="8.89mm" fill="black" stoke-width="0"/>
<circle cx="482.29mm" cy="261.37mm" r="6.35mm" fill="black" stoke-width="0"/>
<circle cx="513.85mm" cy="261.37mm" r="8.89mm" fill="black" stoke-width="0"/>
<circle cx="545.41mm" cy="261.37mm" r="8.89mm" fill="black" stoke-width="0"/>
<circle cx="8.89mm" cy="292.93mm" r="8.89mm" fill="black" stoke-width="0"/>
<circle cx="40.45mm" cy="292.93mm" r="8.89mm" fill="black" stoke-width="0"/>
<circle cx="72.01mm" cy="292.93mm" r="8.89mm" fill="black" stoke-width="0"/>
<circle cx="103.57mm" cy="292.93mm" r="6.35mm" fill="black" stoke-width="0"/>
<circle cx="135.13mm" cy="292.93mm" r="6.35mm" fill="black" stoke-width="0"/>
<circle cx="166.69mm" cy="292.93mm" r="6.35mm" fill="black" stoke-width="0"/>
<circle cx="198.25mm" cy="292.93mm" r="8.89mm" fill="black" stoke-width="0"/>
<circle cx="229.81mm" cy="292.93mm" r="8.89mm" fill="black" stoke-width="0"/>
<circle cx="261.37mm" cy="292.93mm" r="6.35mm" fill="black" stoke-width="0"/>
<circle cx="292.93mm" cy="292.93mm" r="6.35mm" fill="black" stoke-width="0"/>
<circle cx="324.49mm" cy="292.93mm" r="6.35mm" fill="black" stoke-width="0"/>
<circle cx="356.05mm" cy="292.93mm" r="6.35mm" fill="black" stoke-width="0"/>
<circle cx="387.61mm" cy="292.93mm" r="8.89mm" fill="black" stoke-width="0"/>
<circle cx="419.17mm" cy="292.93mm" r="6.35mm" fill="black" stoke-width="0"/>
<circle cx="450.73mm" cy="292.93mm" r="8.89mm" fill="black" stoke-width="0"/>
<circle cx="482.29mm" cy="292.93mm" r="6.35mm" fill="black" stoke-width="0"/>
<circle cx="513.85mm" cy="292.93mm" r="8.89mm" fill="black" stoke-width="0"/>
<circle cx="545.41mm" cy="292.93mm" r="6.35mm" fill="black" stoke-width="0"/>
<circle cx="8.89mm" cy="324.49mm" r="8.89mm" fill="black" stoke-width="0"/>
<circle cx="40.45mm" cy="324.49mm" r="8.89mm" fill="black" stoke-width="0"/>
<circle cx="72.01mm" cy="324.49mm" r="6.35mm" fill="black" stoke-width="0"/>
<circle cx="103.57mm" cy="324.49mm" r="8.89mm" fill="black" stoke-width="0"/>
<circle cx="135.13mm" cy="324.49mm" r="8.89mm" fill="black" stoke-width="0"/>
<circle cx="166.69mm" cy="324.49mm" r="8.89mm" fill="black" stoke-width="0"/>
<circle cx="198.25mm" cy="324.49mm" r="8.89mm" fill="black" stoke-width="0"/>
<circle cx="229.81mm" cy="324.49mm" r="6.35mm" fill="black" stoke-width="0"/>
<circle cx="261.37mm" cy="324.49mm" r="8.89mm" fill="black" stoke-width="0"/>
<circle cx="292.93mm" cy="324.49mm" r="6.35mm" fill="black" stoke-width="0"/>
<circle cx="324.49mm" cy="324.49mm" r="8.89mm" fill="black" stoke-width="0"/>
<circle cx="356.05mm" cy="324.49mm" r="6.35mm" fill="black" stoke-width="0"/>
<circle cx="387.61mm" cy="324.49mm" r="8.89mm" fill="black" stoke-width="0"/>
<circle cx="419.17mm" cy="324.49mm" r="6.35mm" fill="black" stoke-width="0"/>
<circle cx="450.73mm" cy="324.49mm" r="8.89mm" fill="black" stoke-width="0"/>
<circle cx="482.29mm" cy="324.49mm" r="8.89mm" fill="black" stoke-width="0"/>
<circle cx="513.85mm" cy="324.49mm" r="8.89mm" fill="black" stoke-width="0"/>
<circle cx="545.41mm" cy="324.49mm" r="8.89mm" fill="black" stoke-width="0"/>
<circle cx="8.89mm" cy="356.05mm" r="6.35mm" fill="black" stoke-width="0"/>
<circle cx="40.45mm" cy="356.05mm" r="6.35mm" fill="black" stoke-width="0"/>
<circle cx="72.01mm" cy="356.05mm" r="8.89mm" fill="black" stoke-width="0"/>
<circle cx="103.57mm" cy="356.05mm" r="8.89mm" fill="black" stoke-width="0"/>
<circle cx="135.13mm" cy="356.05mm" r="8.89mm" fill="black" stoke-width="0"/>
<circle cx="166.69mm" cy="356.05mm" r="8.89mm" fill="black" stoke-width="0"/>
<circle cx="198.25mm" cy="356.05mm" r="6.35mm" fill="black" stoke-width="0"/>
<circle cx="229.81mm" cy="356.05mm" r="8.89mm" fill="black" stoke-width="0"/>
<circle cx="261.37mm" cy="356.05mm" r="8.89mm" fill="black" stoke-width="0"/>
<circle cx="292.93mm" cy="356.05mm" r="6.35mm" fill="black" stoke-width="0"/>
<circle cx="324.49mm" cy="356.05mm" r="8.89mm" fill="black" stoke-width="0"/>
<circle cx="356.05mm" cy="356.05mm" r="6.35mm" fill="black" stoke-width="0"/>
<circle cx="387.61mm" cy="356.05mm" r="6.35mm" fill="black" stoke-width="0"/>
<circle cx="419.17mm" cy="356.05mm" r="8.89mm" fill="black" stoke-width="0"/>
<circle cx="450.73mm" cy="356.05mm" r="8.89mm" fill="black" stoke-width="0"/>
<circle cx="482.29mm" cy="356.05mm" r="6.35mm" fill="black" stoke-width="0"/>
<circle cx="513.85mm" cy="356.05mm" r="8.89mm" fill="black" stoke-width="0"/>
<circle cx="545.41mm" cy="356.05mm" r="6.35mm" fill="black" stoke-width="0"/>
<circle cx="8.89mm" cy="387.61mm" r="6.35mm" fill="black" stoke-width="0"/>
<circle cx="40.45mm" cy="387.61mm" r="6.35mm" fill="black" stoke-width="0"/>
<circle cx="72.01mm" cy="387.61mm" r="8.89mm" fill="black" stoke-width="0"/>
<circle cx="103.57mm" cy="387.61mm" r="8.89mm" fill="black" stoke-width="0"/>
<circle cx="135.13mm" cy="387.61mm" r="6.35mm" fill="black" stoke-width="0"/>
<circle cx="166.69mm" cy="387.61mm" r="8.89mm" fill="black" stoke-width="0"/>
<circle cx="198.25mm" cy="387.61mm" r="6.35mm" fill="black" stoke-width="0"/>
<circle cx="229.81mm" cy="387.61mm" r="8.89mm" fill="black" stoke-width="0"/>
<circle cx="261.37mm" cy="387.61mm" r="6.35mm" fill="black" stoke-width="0"/>
<circle cx="292.93mm" cy="387.61mm" r="8.89mm" fill="black" stoke-width="0"/>
<circle cx="324.49mm" cy="387.61mm" r="8.89mm" fill="black" stoke-width="0"/>
<circle cx="356.05mm" cy="387.61mm" r="6.35mm" fill="black" stoke-width="0"/>
<circle cx="387.61mm" cy="387.61mm" r="6.35mm" fill="black" stoke-width="0"/>
<circle cx="419.17mm" cy="387.61mm" r="6.35mm" fill="black" stoke-width="0"/>
<circle cx="450.73mm" cy="387.61mm" r="6.35mm" fill="black" stoke-width="0"/>
<circle cx="482.29mm" cy="387.61mm" r="8.89mm" fill="black" stoke-width="0"/>
<circle cx="513.85mm" cy="387.61mm" r="8.89mm" fill="black" stoke-width="0"/>
<circle cx="545.41mm" cy="387.61mm" r="6.35mm" fill="black" stoke-width="0"/>
<circle cx="8.89mm" cy="419.17mm" r="8.89mm" fill="black" stoke-width="0"/>
<circle cx="40.45mm" cy="419.17mm" r="6.35mm" fill="black" stoke-width="0"/>
<circle cx="72.01mm" cy="419.17mm" r="6.35mm" fill="black" stoke-width="0"/>
<circle cx="103.57mm" cy="419.17mm" r="6.35mm" fill="black" stoke-width="0"/>
<circle cx="135.13mm" cy="419.17mm" r="8.89mm" fill="black" stoke-width="0"/>
<circle cx="166.69mm" cy="419.17mm" r="6.35mm" fill="black" stoke-width="0"/>
<circle cx="198.25mm" cy="419.17mm" r="6.35mm" fill="black" stoke-width="0"/>
<circle cx="229.81mm" cy="419.17mm" r="8.89mm" fill="black" stoke-width="0"/>
<circle cx="261.37mm" cy="419.17mm" r="8.89mm" fill="black" stoke-width="0"/>
<circle cx="292.93mm" cy="419.17mm" r="8.89mm" fill="black" stoke-width="0"/>
<circle cx="324.49mm" cy="419.17mm" r="8.89mm" fill="black" stoke-width="0"/>
<circle cx="356.05mm" cy="419.17mm" r="6.35mm" fill="black" stoke-width="0"/>
<circle cx="387.61mm" cy="419.17mm" r="8.89mm" fill="black" stoke-width="0"/>
<circle cx="419.17mm" cy="419.17mm" r="8.89mm" fill="black" stoke-width="0"/>
<circle cx="450.73mm" cy="419.17mm" r="6.35mm" fill="black" stoke-width="0"/>
<circle cx="482.29mm" cy="419.17mm" r="8.89mm" fill="black" stoke-width="0"/>
<circle cx="513.85mm" cy="419.17mm" r="6.35mm" fill="black" stoke-width="0"/>
<circle cx="545.41mm" cy="419.17mm" r="6.35mm" fill="black" stoke-width="0"/>
<circle cx="8.89mm" cy="450.73mm" r="6.35mm" fill="black" stoke-width="0"/>
<circle cx="40.45mm" cy="450.73mm" r="6.35mm" fill="black" stoke-width="0"/>
<circle cx="72.01mm" cy="450.73mm" r="8.89mm" fill="black" stoke-width="0"/>
<circle cx="103.57mm" cy="450.73mm" r="6.35mm" fill="black" stoke-width="0"/>
<circle cx="135.13mm" cy="450.73mm" r="8.89mm" fill="black" stoke-width="0"/>
<circle cx="166.69mm" cy="450.73mm" r="8.89mm" fill="black" stoke-width="0"/>
<circle cx="198.25mm" cy="450.73mm" r="6.35mm" fill="black" stoke-width="0"/>
<circle cx="229.81mm" cy="450.73mm" r="6.35mm" fill="black" stoke-width="0"/>
<circle cx="261.37mm" cy="450.73mm" r="8.89mm" fill="black" stoke-width="0"/>
<circle cx="292.93mm" cy="450.73mm" r="8.89mm" fill="black" stoke-width="0"/>
<circle cx="324.49mm" cy="450.73mm" r="6.35mm" fill="black" stoke-width="0"/>
<circle cx="356.05mm" cy="450.73mm" r="6.35mm" fill="black" stoke-width="0"/>
<circle cx="387.61mm" cy="450.73mm" r="6.35mm" fill="black" stoke-width="0"/>
<circle cx="419.17mm" cy="450.73mm" r="8.89mm" fill="black" stoke-width="0"/>
<circle cx="450.73mm" cy="450.73mm" r="8.89mm" fill="black" stoke-width="0"/>
<circle cx="482.29mm" cy="450.73mm" r="8.89mm" fill="black" stoke-width="0"/>
<circle cx="513.85mm" cy="450.73mm" r="8.89mm" fill="black" stoke-width="0"/>
<circle cx="545.41mm" cy="450.73mm" r="6.35mm" fill="black" stoke-width="0"/>
<circle cx="8.89mm" cy="482.29mm" r="6.35mm" fill="black" stoke-width="0"/>
<circle cx="40.45mm" cy="482.29mm" r="8.89mm" fill="black" stoke-width="0"/>
<circle cx="72.01mm" cy="482.29mm" r="8.89mm" fill="black" stoke-width="0"/>
<circle cx="103.57mm" cy="482.29mm" r="6.35mm" fill="black" stoke-width="0"/>
<circle cx="135.13mm" cy="482.29mm" r="8.89mm" fill="black" stoke-width="0"/>
<circle cx="166.69mm" cy="482.29mm" r="8.89mm" fill="black" stoke-width="0"/>
<circle cx="198.25mm" cy="482.29mm" r="6.35mm" fill="black" stoke-width="0"/>
<circle cx="229.81mm" cy="482.29mm" r="6.35mm" fill="black" stoke-width="0"/>
<circle cx="261.37mm" cy="482.29mm" r="6.35mm" fill="black" stoke-width="0"/>
<circle cx="292.93mm" cy="482.29mm" r="6.35mm" fill="black" stoke-width="0"/>
<circle cx="324.49mm" cy="482.29mm" r="6.35mm" fill="black" stoke-width="0"/>
<circle cx="356.05mm" cy="482.29mm" r="6.35mm" fill="black" stoke-width="0"/>
<circle cx="387.61mm" cy="482.29mm" r="6.35mm" fill="black" stoke-width="0"/>
<circle cx="419.17mm" cy="482.29mm" r="8.89mm" fill="black" stoke-width="0"/>
<circle cx="450.73mm" cy="482.29mm" r="8.89mm" fill="black" stoke-width="0"/>
<circle cx="482.29mm" cy="482.29mm" r="6.35mm" fill="black" stoke-width="0"/>
<circle cx="513.85mm" cy="482.29mm" r="6.35mm" fill="black" stoke-width="0"/>
<circle cx="545.41mm" cy="482.29mm" r="8.89mm" fill="black" stoke-width="0"/>
<circle cx="8.89mm" cy="513.85mm" r="6.35mm" fill="black" stoke-width="0"/>
<circle cx="40.45mm" cy="513.85mm" r="6.35mm" fill="black" stoke-width="0"/>
<circle cx="72.01mm" cy="513.85mm" r="8.89mm" fill="black" stoke-width="0"/>
<circle cx="103.57mm" cy="513.85mm" r="8.89mm" fill="black" stoke-width="0"/>
<circle cx="135.13mm" cy="513.85mm" r="6.35mm" fill="black" stoke-width="0"/>
<circle cx="166.69mm" cy="513.85mm" r="8.89mm" fill="black" stoke-width="0"/>
<circle cx="198.25mm" cy="513.85mm" r="6.35mm" fill="black" stoke-width="0"/>
<circle cx="229.81mm" cy="513.85mm" r="6.35mm" fill="black" stoke-width="0"/>
<circle cx="261.37mm" cy="513.85mm" r="6.35mm" fill="black" stoke-width="0"/>
<circle cx="292.93mm" cy="513.85mm" r="6.35mm" fill="black" stoke-width="0"/>
<circle cx="324.49mm" cy="513.85mm" r="6.35mm" fill="black" stoke-width="0"/>
<circle cx="356.05mm" cy="513.85mm" r="8.89mm" fill="black" stoke-width="0"/>
<circle cx="387.61mm" cy="513.85mm" r="6.35mm" fill="black" stoke-width="0"/>
<circle cx="419.17mm" cy="513.85mm" r="8.89mm" fill="black" stoke-width="0"/>
<circle cx="450.73mm" cy="513.85mm" r="6.35mm" fill="black" stoke-width="0"/>
<circle cx="482.29mm" cy="513.85mm" r="6.35mm" fill="black" stoke-width="0"/>
<circle cx="513.85mm" cy="513.85mm" r="8.89mm" fill="black" stoke-width="0"/>
<circle cx="545.41mm" cy="513.85mm" r="6.35mm" fill="black" stoke-width="0"/>
<circle cx="8.89mm" cy="545.41mm" r="8.89mm" fill="black" stoke-width="0"/>
<circle cx="40.45mm" cy="545.41mm" r="8.89mm" fill="black" stoke-width="0"/>
<circle cx="72.01mm" cy="545.41mm" r="6.35mm" fill="black" stoke-width="0"/>
<circle cx="103.57mm" cy="545.41mm" r="8.89mm" fill="black" stoke-width="0"/>
<circle cx="135.13mm" cy="545.41mm" r="8.89mm" fill="black" stoke-width="0"/>
<circle cx="166.69mm" cy="545.41mm" r="6.35mm" fill="black" stoke-width="0"/>
<circle cx="198.25mm" cy="545.41mm" r="6.35mm" fill="black" stoke-width="0"/>
<circle cx="229.81mm" cy="545.41mm" r="6.35mm" fill="black" stoke-width="0"/>
<circle cx="261.37mm" cy="545.41mm" r="8.89mm" fill="black" stoke-width="0"/>
<circle cx="292.93mm" cy="545.41mm" r="8.89mm" fill="black" stoke-width="0"/>
<circle cx="324.49mm" cy="545.41mm" r="6.35mm" fill="black" stoke-width="0"/>
<circle cx="356.05mm" cy="545.41mm" r="8.89mm" fill="black" stoke-width="0"/>
<circle cx="387.61mm" cy="545.41mm" r="8.89mm" fill="black" stoke-width="0"/>
<circle cx="419.17mm" cy="545.41mm" r="6.35mm" fill="black" stoke-width="0"/>
<circle cx="450.73mm" cy="545.41mm" r="6.35mm" fill="black" stoke-width="0"/>
<circle cx="482.29mm" cy="545.41mm" r="8.89mm" fill="black" stoke-width="0"/>
<circle cx="513.85mm" cy="545.41mm" r="8.89mm" fill="black" stoke-width="0"/>
<circle cx="545.41mm" cy="545.41mm" r="6.35mm" fill="black" stoke-width="0"/>
<circle cx="8.89mm" cy="576.97mm" r="6.35mm" fill="black" stoke-width="0"/>
<circle cx="40.45mm" cy="576.97mm" r="8.89mm" fill="black" stoke-width="0"/>
<circle cx="72.01mm" cy="576.97mm" r="6.35mm" fill="black" stoke-width="0"/>
<circle cx="103.57mm" cy="576.97mm" r="6.35mm" fill="black" stoke-width="0"/>
<circle cx="135.13mm" cy="576.97mm" r="8.89mm" fill="black" stoke-width="0"/>
<circle cx="166.69mm" cy="576.97mm" r="8.89mm" fill="black" stoke-width="0"/>
<circle cx="198.25mm" cy="576.97mm" r="8.89mm" fill="black" stoke-width="0"/>
<circle cx="229.81mm" cy="576.97mm" r="8.89mm" fill="black" stoke-width="0"/>
<circle cx="261.37mm" cy="576.97mm" r="8.89mm" fill="black" stoke-width="0"/>
<circle cx="292.93mm" cy="576.97mm" r="6.35mm" fill="black" stoke-width="0"/>
<circle cx="324.49mm" cy="576.97mm" r="6.35mm" fill="black" stoke-width="0"/>
<circle cx="356.05mm" cy="576.97mm" r="6.35mm" fill="black" stoke-width="0"/>
<circle cx="387.61mm" cy="576.97mm" r="8.89mm" fill="black" stoke-width="0"/>
<circle cx="419.17mm" cy="576.97mm" r="8.89mm" fill="black" stoke-width="0"/>
<circle cx="450.73mm" cy="576.97mm" r="8.89mm" fill="black" stoke-width="0"/>
<circle cx="482.29mm" cy="576.97mm" r="8.89mm" fill="black" stoke-width="0"/>
<circle cx="513.85mm" cy="576.97mm" r="8.89mm" fill="black" stoke-width="0"/>
<circle cx="545.41mm" cy="576.97mm" r="8.89mm" fill="black" stoke-width="0"/>
<circle cx="8.89mm" cy="608.53mm" r="6.35mm" fill="black" stoke-width="0"/>
<circle cx="40.45mm" cy="608.53mm" r="8.89mm" fill="black" stoke-width="0"/>
<circle cx="72.01mm" cy="608.53mm" r="6.35mm" fill="black" stoke-width="0"/>
<circle cx="103.57mm" cy="608.53mm" r="8.89mm" fill="black" stoke-width="0"/>
<circle cx="135.13mm" cy="608.53mm" r="8.89mm" fill="black" stoke-width="0"/>
<circle cx="166.69mm" cy="608.53mm" r="8.89mm" fill="black" stoke-width="0"/>
<circle cx="198.25mm" cy="608.53mm" r="6.35mm" fill="black" stoke-width="0"/>
<circle cx="229.81mm" cy="608.53mm" r="6.35mm" fill="black" stoke-width="0"/>
<circle cx="261.37mm" cy="608.53mm" r="6.35mm" fill="black" stoke-width="0"/>
<circle cx="292.93mm" cy="608.53mm" r="6.35mm" fill="black" stoke-width="0"/>
<circle cx="324.49mm" cy="608.53mm" r="8.89mm" fill="black" stoke-width="0"/>
<circle cx="356.05mm" cy="608.53mm" r="8.89mm" fill="black" stoke-width="0"/>
<circle cx="387.61mm" cy="608.53mm" r="8.89mm" fill="black" stoke-width="0"/>
<circle cx="419.17mm" cy="608.53mm" r="8.89mm" fill="black" stoke-width="0"/>
<circle cx="450.73mm" cy="608.53mm" r="8.89mm" fill="black" stoke-width="0"/>
<circle cx="482.29mm" cy="608.53mm" r="6.35mm" fill="black" stoke-width="0"/>
<circle cx="513.85mm" cy="608.53mm" r="8.89mm" fill="black" stoke-width="0"/>
<circle cx="545.41mm" cy="608.53mm" r="6.35mm" fill="black" stoke-width="0"/>
<circle cx="8.89mm" cy="640.09mm" r="8.89mm" fill="black" stoke-width="0"/>
<circle cx="40.45mm" cy="640.09mm" r="6.35mm" fill="black" stoke-width="0"/>
<circle cx="72.01mm" cy="640.09mm" r="6.35mm" fill="black" stoke-width="0"/>
<circle cx="103.57mm" cy="640.09mm" r="6.35mm" fill="black" stoke-width="0"/>
<circle cx="135.13mm" cy="640.09mm" r="8.89mm" fill="black" stoke-width="0"/>
<circle cx="166.69mm" cy="640.09mm" r="8.89mm" fill="black" stoke-width="0"/>
<circle cx="198.25mm" cy="640.09mm" r="6.35mm" fill="black" stoke-width="0"/>
<circle cx="229.81mm" cy="640.09mm" r="6.35mm" fill="black" stoke-width="0"/>
<circle cx="261.37mm" cy="640.09mm" r="8.89mm" fill="black" stoke-width="0"/>
<circle cx="292.93mm" cy="640.09mm" r="8.89mm" fill="black" stoke-width="0"/>
<circle cx="324.49mm" cy="640.09mm" r="6.35mm" fill="black" stoke-width="0"/>
<circle cx="356.05mm" cy="640.09mm" r="8.89mm" fill="black" stoke-width="0"/>
<circle cx="387.61mm" cy="640.09mm" r="8.89mm" fill="black" stoke-width="0"/>
<circle cx="419.17mm" cy="640.09mm" r="8.89mm" fill="black" stoke-width="0"/>
<circle cx="450.73mm" cy="640.09mm" r="8.89mm" fill="black" stoke-width="0"/>
<circle cx="482.29mm" cy="640.09mm" r="8.89mm" fill="black" stoke-width="0"/>
<circle cx="513.85mm" cy="640.09mm" r="8.89mm" fill="black" stoke-width="0"/>
<circle cx="545.41mm" cy="640.09mm" r="8.89mm" fill="black" stoke-width="0"/>
<circle cx="8.89mm" cy="671.65mm" r="6.35mm" fill="black" stoke-width="0"/>
<circle cx="40.45mm" cy="671.65mm" r="8.89mm" fill="black" stoke-width="0"/>
<circle cx="72.01mm" cy="671.65mm" r="6.35mm" fill="black" stoke-width="0"/>
<circle cx="103.57mm" cy="671.65mm" r="8.89mm" fill="black" stoke-width="0"/>
<circle cx="135.13mm" cy="671.65mm" r="6.35mm" fill="black" stoke-width="0"/>
<circle cx="166.69mm" cy="671.65mm" r="8.89mm" fill="black" stoke-width="0"/>
<circle cx="198.25mm" cy="671.65mm" r="8.89mm" fill="black" stoke-width="0"/>
<circle cx="229.81mm" cy="671.65mm" r="8.89mm" fill="black" stoke-width="0"/>
<circle cx="261.37mm" cy="671.65mm" r="6.35mm" fill="black" stoke-width="0"/>
<circle cx="292.93mm" cy="671.65mm" r="6.35mm" fill="black" stoke-width="0"/>
<circle cx="324.49mm" cy="671.65mm" r="8.89mm" fill="black" stoke-width="0"/>
<circle cx="356.05mm" cy="671.65mm" r="6.35mm" fill="black" stoke-width="0"/>
<circle cx="387.61mm" cy="671.65mm" r="8.89mm" fill="black" stoke-width="0"/>
<circle cx="419.17mm" cy="671.65mm" r="6.35mm" fill="black" stoke-width="0"/>
<circle cx="450.73mm" cy="671.65mm" r="6.35mm" fill="black" stoke-width="0"/>
<circle cx="482.29mm" cy="671.65mm" r="6.35mm" fill="black" stoke-width="0"/>
<circle cx="513.85mm" cy="671.65mm" r="6.35mm" fill="black" stoke-width="0"/>
<circle cx="545.41mm" cy="671.65mm" r="8.89mm" fill="black" stoke-width="0"/>
<circle cx="8.89mm" cy="703.21mm" r="6.35mm" fill="black" stoke-width="0"/>
<circle cx="40.45mm" cy="703.21mm" r="8.89mm" fill="black" stoke-width="0"/>
<circle cx="72.01mm" cy="703.21mm" r="6.35mm" fill="black" stoke-width="0"/>
<circle cx="103.57mm" cy="703.21mm" r="6.35mm" fill="black" stoke-width="0"/>
<circle cx="135.13mm" cy="703.21mm" r="8.89mm" fill="black" stoke-width="0"/>
<circle cx="166.69mm" cy="703.21mm" r="8.89mm" fill="black" stoke-width="0"/>
<circle cx="198.25mm" cy="703.21mm" r="8.89mm" fill="black" stoke-width="0"/>
<circle cx="229.81mm" cy="703.21mm" r="6.35mm" fill="black" stoke-width="0"/>
<circle cx="261.37mm" cy="703.21mm" r="6.35mm" fill="black" stoke-width="0"/>
<circle cx="292.93mm" cy="703.21mm" r="6.35mm" fill="black" stoke-width="0"/>
<circle cx="324.49mm" cy="703.21mm" r="8.89mm" fill="black" stoke-width="0"/>
<circle cx="356.05mm" cy="703.21mm" r="8.89mm" fill="black" stoke-width="0"/>
<circle cx="387.61mm" cy="703.21mm" r="6.35mm" fill="black" stoke-width="0"/>
<circle cx="419.17mm" cy="703.21mm" r="6.35mm" fill="black" stoke-width="0"/>
<circle cx="450.73mm" cy="703.21mm" r="6.35mm" fill="black" stoke-width="0"/>
<circle cx="482.29mm" cy="703.21mm" r="8.89mm" fill="black" stoke-width="0"/>
<circle cx="513.85mm" cy="703.21mm" r="6.35mm" fill="black" stoke-width="0"/>
<circle cx="545.41mm" cy="703.21mm" r="8.89mm" fill="black" stoke-width="0"/>
<circle cx="8.89mm" cy="734.77mm" r="8.89mm" fill="black" stoke-width="0"/>
<circle cx="40.45mm" cy="734.77mm" r="8.89mm" fill="black" stoke-width="0"/>
<circle cx="72.01mm" cy="734.77mm" r="6.35mm" fill="black" stoke-width="0"/>
<circle cx="103.57mm" cy="734.77mm" r="6.35mm" fill="black" stoke-width="0"/>
<circle cx="135.13mm" cy="734.77mm" r="8.89mm" fill="black" stoke-width="0"/>
<circle cx="166.69mm" cy="734.77mm" r="8.89mm" fill="black" stoke-width="0"/>
<circle cx="198.25mm" cy="734.77mm" r="6.35mm" fill="black" stoke-width="0"/>
<circle cx="229.81mm" cy="734.77mm" r="6.35mm" fill="black" stoke-width="0"/>
<circle cx="261.37mm" cy="734.77mm" r="6.35mm" fill="black" stoke-width="0"/>
<circle cx="292.93mm" cy="734.77mm" r="8.89mm" fill="black" stoke-width="0"/>
<circle cx="324.49mm" cy="734.77mm" r="8.89mm" fill="black" stoke-width="0"/>
<circle cx="356.05mm" cy="734.77mm" r="8.89mm" fill="black" stoke-width="0"/>
<circle cx="387.61mm" cy="734.77mm" r="6.35mm" fill="black" stoke-width="0"/>
<circle cx="419.17mm" cy="734.77mm" r="8.89mm" fill="black" stoke-width="0"/>
<circle cx="450.73mm" cy="734.77mm" r="6.35mm" fill="black" stoke-width="0"/>
<circle cx="482.29mm" cy="734.77mm" r="8.89mm" fill="black" stoke-width="0"/>
<circle cx="513.85mm" cy="734.77mm" r="6.35mm" fill="black" stoke-width="0"/>
<circle cx="545.41mm" cy="734.77mm" r="8.89mm" fill="black" stoke-width="0"/>
<circle cx="8.89mm" cy="766.33mm" r="8.89mm" fill="black" stoke-width="0"/>
<circle cx="40.45mm" cy="766.33mm" r="6.35mm" fill="black" stoke-width="0"/>
<circle cx="72.01mm" cy="766.33mm" r="8.89mm" fill="black" stoke-width="0"/>
<circle cx="103.57mm" cy="766.33mm" r="6.35mm" fill="black" stoke-width="0"/>
<circle cx="135.13mm" cy="766.33mm" r="6.35mm" fill="black" stoke-width="0"/>
<circle cx="166.69mm" cy="766.33mm" r="8.89mm" fill="black" stoke-width="0"/>
<circle cx="198.25mm" cy="766.33mm" r="6.35mm" fill="black" stoke-width="0"/>
<circle cx="229.81mm" cy="766.33mm" r="6.35mm" fill="black" stoke-width="0"/>
<circle cx="261.37mm" cy="766.33mm" r="8.89mm" fill="black" stoke-width="0"/>
<circle cx="292.93mm" cy="766.33mm" r="8.89mm" fill="black" stoke-width="0"/>
<circle cx="324.49mm" cy="766.33mm" r="8.89mm" fill="black" stoke-width="0"/>
<circle cx="356.05mm" cy="766.33mm" r="6.35mm" fill="black" stoke-width="0"/>
<circle cx="387.61mm" cy="766.33mm" r="6.35mm" fill="black" stoke-width="0"/>
<circle cx="419.17mm" cy="766.33mm" r="6.35mm" fill="black" stoke-width="0"/>
<circle cx="450.73mm" cy="766.33mm" r="8.89mm" fill="black" stoke-width="0"/>
<circle cx="482.29mm" cy="766.33mm" r="8.89mm" fill="black" stoke-width="0"/>
<circle cx="513.85mm" cy="766.33mm" r="8.89mm" fill="black" stoke-width="0"/>
<circle cx="545.41mm" cy="766.33mm" r="8.89mm" fill="black" stoke-width="0"/>
<text x="1mm" y="789.11mm" font-size="8mm">Distance between circle centers: 31.560 mm. Long radius: 8.890 mm. Short radius: 6.350 mm.</text>
</svg>
