<?xml version="1.0" standalone="no"?>
<!DOCTYPE svg PUBLIC "-//W3C//DTD SVG 1.1//EN" "http://www.w3.org/Graphics/SVG/1.1/DTD/svg11.dtd">
<svg width="262.46mm" height="155.46mm">
<circle cx="4.23mm" cy="4.23mm" r="2.83mm" fill="black" stoke-width="0"/>
<circle cx="18.3411mm" cy="4.23mm" r="4.23mm" fill="black" stoke-width="0"/>
<circle cx="32.4522mm" cy="4.23mm" r="2.83mm" fill="black" stoke-width="0"/>
<circle cx="46.5633mm" cy="4.23mm" r="2.83mm" fill="black" stoke-width="0"/>
<circle cx="60.6744mm" cy="4.23mm" r="4.23mm" fill="black" stoke-width="0"/>
<circle cx="74.7856mm" cy="4.23mm" r="4.23mm" fill="black" stoke-width="0"/>
<circle cx="88.8967mm" cy="4.23mm" r="2.83mm" fill="black" stoke-width="0"/>
<circle cx="103.008mm" cy="4.23mm" r="2.83mm" fill="black" stoke-width="0"/>
<circle cx="117.119mm" cy="4.23mm" r="4.23mm" fill="black" stoke-width="0"/>
<circle cx="131.23mm" cy="4.23mm" r="4.23mm" fill="black" stoke-width="0"/>
<circle cx="145.341mm" cy="4.23mm" r="4.23mm" fill="black" stoke-width="0"/>
<circle cx="159.452mm" cy="4.23mm" r="2.83mm" fill="black" stoke-width="0"/>
<circle cx="173.563mm" cy="4.23mm" r="4.23mm" fill="black" stoke-width="0"/>
<circle cx="187.674mm" cy="4.23mm" r="2.83mm" fill="black" stoke-width="0"/>
<circle cx="201.786mm" cy="4.23mm" r="4.23mm" fill="black" stoke-width="0"/>
<circle cx="215.897mm" cy="4.23mm" r="2.83mm" fill="black" stoke-width="0"/>
<circle cx="230.008mm" cy="4.23mm" r="4.23mm" fill="black" stoke-width="0"/>
<circle cx="244.119mm" cy="4.23mm" r="2.83mm" fill="black" stoke-width="0"/>
<circle cx="258.23mm" cy="4.23mm" r="2.83mm" fill="black" stoke-width="0"/>
<circle cx="4.23mm" cy="18.3411mm" r="4.23mm" fill="black" stoke-width="0"/>
<circle cx="18.3411mm" cy="18.3411mm" r="2.83mm" fill="black" stoke-width="0"/>
<circle cx="32.4522mm" cy="18.3411mm" r="4.23mm" fill="black" stoke-width="0"/>
<circle cx="46.5633mm" cy="18.3411mm" r="4.23mm" fill="black" stoke-width="0"/>
<circle cx="60.6744mm" cy="18.3411mm" r="2.83mm" fill="black" stoke-width="0"/>
<circle cx="74.7856mm" cy="18.3411mm" r="2.83mm" fill="black" stoke-width="0"/>
<circle cx="88.8967mm" cy="18.3411mm" r="2.83mm" fill="black" stoke-width="0"/>
<circle cx="103.008mm" cy="18.3411mm" r="4.23mm" fill="black" stoke-width="0"/>
<circle cx="117.119mm" cy="18.3411mm" r="4.23mm" fill="black" stoke-width="0"/>
<circle cx="131.23mm" cy="18.3411mm" r="2.83mm" fill="black" stoke-width="0"/>
<circle cx="145.341mm" cy="18.3411mm" r="4.23mm" fill="black" stoke-width="0"/>
<circle cx="159.452mm" cy="18.3411mm" r="4.23mm" fill="black" stoke-width="0"/>
<circle cx="173.563mm" cy="18.3411mm" r="2.83mm" fill="black" stoke-width="0"/>
<circle cx="187.674mm" cy="18.3411mm" r="2.83mm" fill="black" stoke-width="0"/>
<circle cx="201.786mm" cy="18.3411mm" r="2.83mm" fill="black" stoke-width="0"/>
<circle cx="215.897mm" cy="18.3411mm" r="4.23mm" fill="black" stoke-width="0"/>
<circle cx="230.008mm" cy="18.3411mm" r="4.23mm" fill="black" stoke-width="0"/>
<circle cx="244.119mm" cy="18.3411mm" r="4.23mm" fill="black" stoke-width="0"/>
<circle cx="258.23mm" cy="18.3411mm" r="4.23mm" fill="black" stoke-width="0"/>
<circle cx="4.23mm" cy="32.4522mm" r="2.83mm" fill="black" stoke-width="0"/>
<circle cx="18.3411mm" cy="32.4522mm" r="2.83mm" fill="black" stoke-width="0"/>
<circle cx="32.4522mm" cy="32.4522mm" r="2.83mm" fill="black" stoke-width="0"/>
<circle cx="46.5633mm" cy="32.4522mm" r="2.83mm" fill="black" stoke-width="0"/>
<circle cx="60.6744mm" cy="32.4522mm" r="2.83mm" fill="black" stoke-width="0"/>
<circle cx="74.7856mm" cy="32.4522mm" r="2.83mm" fill="black" stoke-width="0"/>
<circle cx="88.8967mm" cy="32.4522mm" r="4.23mm" fill="black" stoke-width="0"/>
<circle cx="103.008mm" cy="32.4522mm" r="4.23mm" fill="black" stoke-width="0"/>
<circle cx="117.119mm" cy="32.4522mm" r="2.83mm" fill="black" stoke-width="0"/>
<circle cx="131.23mm" cy="32.4522mm" r="4.23mm" fill="black" stoke-width="0"/>
<circle cx="145.341mm" cy="32.4522mm" r="4.23mm" fill="black" stoke-width="0"/>
<circle cx="159.452mm" cy="32.4522mm" r="4.23mm" fill="black" stoke-width="0"/>
<circle cx="173.563mm" cy="32.4522mm" r="4.23mm" fill="black" stoke-width="0"/>
<circle cx="187.674mm" cy="32.4522mm" r="2.83mm" fill="black" stoke-width="0"/>
<circle cx="201.786mm" cy="32.4522mm" r="2.83mm" fill="black" stoke-width="0"/>
<circle cx="215.897mm" cy="32.4522mm" r="2.83mm" fill="black" stoke-width="0"/>
<circle cx="230.008mm" cy="32.4522mm" r="2.83mm" fill="black" stoke-width="0"/>
<circle cx="244.119mm" cy="32.4522mm" r="4.23mm" fill="black" stoke-width="0"/>
<circle cx="258.23mm" cy="32.4522mm" r="2.83mm" fill="black" stoke-width="0"/>
<circle cx="4.23mm" cy="46.5633mm" r="4.23mm" fill="black" stoke-width="0"/>
<circle cx="18.3411mm" cy="46.5633mm" r="4.23mm" fill="black" stoke-width="0"/>
<circle cx="32.4522mm" cy="46.5633mm" r="4.23mm" fill="black" stoke-width="0"/>
<circle cx="46.5633mm" cy="46.5633mm" r="2.83mm" fill="black" stoke-width="0"/>
<circle cx="60.6744mm" cy="46.5633mm" r="4.23mm" fill="black" stoke-width="0"/>
<circle cx="74.7856mm" cy="46.5633mm" r="2.83mm" fill="black" stoke-width="0"/>
<circle cx="88.8967mm" cy="46.5633mm" r="2.83mm" fill="black" stoke-width="0"/>
<circle cx="103.008mm" cy="46.5633mm" r="4.23mm" fill="black" stoke-width="0"/>
<circle cx="117.119mm" cy="46.5633mm" r="4.23mm" fill="black" stoke-width="0"/>
<circle cx="131.23mm" cy="46.5633mm" r="2.83mm" fill="black" stoke-width="0"/>
<circle cx="145.341mm" cy="46.5633mm" r="2.83mm" fill="black" stoke-width="0"/>
<circle cx="159.452mm" cy="46.5633mm" r="4.23mm" fill="black" stoke-width="0"/>
<circle cx="173.563mm" cy="46.5633mm" r="4.23mm" fill="black" stoke-width="0"/>
<circle cx="187.674mm" cy="46.5633mm" r="2.83mm" fill="black" stoke-width="0"/>
<circle cx="201.786mm" cy="46.5633mm" r="2.83mm" fill="black" stoke-width="0"/>
<circle cx="215.897mm" cy="46.5633mm" r="2.83mm" fill="black" stoke-width="0"/>
<circle cx="230.008mm" cy="46.5633mm" r="4.23mm" fill="black" stoke-width="0"/>
<circle cx="244.119mm" cy="46.5633mm" r="2.83mm" fill="black" stoke-width="0"/>
<circle cx="258.23mm" cy="46.5633mm" r="2.83mm" fill="black" stoke-width="0"/>
<circle cx="4.23mm" cy="60.6744mm" r="2.83mm" fill="black" stoke-width="0"/>
<circle cx="18.3411mm" cy="60.6744mm" r="4.23mm" fill="black" stoke-width="0"/>
<circle cx="32.4522mm" cy="60.6744mm" r="2.83mm" fill="black" stoke-width="0"/>
<circle cx="46.5633mm" cy="60.6744mm" r="4.23mm" fill="black" stoke-width="0"/>
<circle cx="60.6744mm" cy="60.6744mm" r="4.23mm" fill="black" stoke-width="0"/>
<circle cx="74.7856mm" cy="60.6744mm" r="2.83mm" fill="black" stoke-width="0"/>
<circle cx="88.8967mm" cy="60.6744mm" r="4.23mm" fill="black" stoke-width="0"/>
<circle cx="103.008mm" cy="60.6744mm" r="4.23mm" fill="black" stoke-width="0"/>
<circle cx="117.119mm" cy="60.6744mm" r="2.83mm" fill="black" stoke-width="0"/>
<circle cx="131.23mm" cy="60.6744mm" r="4.23mm" fill="black" stoke-width="0"/>
<circle cx="145.341mm" cy="60.6744mm" r="4.23mm" fill="black" stoke-width="0"/>
<circle cx="159.452mm" cy="60.6744mm" r="4.23mm" fill="black" stoke-width="0"/>
<circle cx="173.563mm" cy="60.6744mm" r="4.23mm" fill="black" stoke-width="0"/>
<circle cx="187.674mm" cy="60.6744mm" r="2.83mm" fill="black" stoke-width="0"/>
<circle cx="201.786mm" cy="60.6744mm" r="4.23mm" fill="black" stoke-width="0"/>
<circle cx="215.897mm" cy="60.6744mm" r="2.83mm" fill="black" stoke-width="0"/>
<circle cx="230.008mm" cy="60.6744mm" r="2.83mm" fill="black" stoke-width="0"/>
<circle cx="244.119mm" cy="60.6744mm" r="2.83mm" fill="black" stoke-width="0"/>
<circle cx="258.23mm" cy="60.6744mm" r="4.23mm" fill="black" stoke-width="0"/>
<circle cx="4.23mm" cy="74.7856mm" r="2.83mm" fill="black" stoke-width="0"/>
<circle cx="18.3411mm" cy="74.7856mm" r="4.23mm" fill="black" stoke-width="0"/>
<circle cx="32.4522mm" cy="74.7856mm" r="2.83mm" fill="black" stoke-width="0"/>
<circle cx="46.5633mm" cy="74.7856mm" r="2.83mm" fill="black" stoke-width="0"/>
<circle cx="60.6744mm" cy="74.7856mm" r="2.83mm" fill="black" stoke-width="0"/>
<circle cx="74.7856mm" cy="74.7856mm" r="4.23mm" fill="black" stoke-width="0"/>
<circle cx="88.8967mm" cy="74.7856mm" r="4.23mm" fill="black" stoke-width="0"/>
<circle cx="103.008mm" cy="74.7856mm" r="4.23mm" fill="black" stoke-width="0"/>
<circle cx="117.119mm" cy="74.7856mm" r="2.83mm" fill="black" stoke-width="0"/>
<circle cx="131.23mm" cy="74.7856mm" r="2.83mm" fill="black" stoke-width="0"/>
<circle cx="145.341mm" cy="74.7856mm" r="2.83mm" fill="black" stoke-width="0"/>
<circle cx="159.452mm" cy="74.7856mm" r="2.83mm" fill="black" stoke-width="0"/>
<circle cx="173.563mm" cy="74.7856mm" r="2.83mm" fill="black" stoke-width="0"/>
<circle cx="187.674mm" cy="74.7856mm" r="4.23mm" fill="black" stoke-width="0"/>
<circle cx="201.786mm" cy="74.7856mm" r="2.83mm" fill="black" stoke-width="0"/>
<circle cx="215.897mm" cy="74.7856mm" r="4.23mm" fill="black" stoke-width="0"/>
<circle cx="230.008mm" cy="74.7856mm" r="4.23mm" fill="black" stoke-width="0"/>
<circle cx="244.119mm" cy="74.7856mm" r="2.83mm" fill="black" stoke-width="0"/>
<circle cx="258.23mm" cy="74.7856mm" r="2.83mm" fill="black" stoke-width="0"/>
<circle cx="4.23mm" cy="88.8967mm" r="4.23mm" fill="black" stoke-width="0"/>
<circle cx="18.3411mm" cy="88.8967mm" r="4.23mm" fill="black" stoke-width="0"/>
<circle cx="32.4522mm" cy="88.8967mm" r="2.83mm" fill="black" stoke-width="0"/>
<circle cx="46.5633mm" cy="88.8967mm" r="4.23mm" fill="black" stoke-width="0"/>
<circle cx="60.6744mm" cy="88.8967mm" r="4.23mm" fill="black" stoke-width="0"/>
<circle cx="74.7856mm" cy="88.8967mm" r="4.23mm" fill="black" stoke-width="0"/>
<circle cx="88.8967mm" cy="88.8967mm" r="2.83mm" fill="black" stoke-width="0"/>
<circle cx="103.008mm" cy="88.8967mm" r="2.83mm" fill="black" stoke-width="0"/>
<circle cx="117.119mm" cy="88.8967mm" r="4.23mm" fill="black" stoke-width="0"/>
<circle cx="131.23mm" cy="88.8967mm" r="2.83mm" fill="black" stoke-width="0"/>
<circle cx="145.341mm" cy="88.8967mm" r="2.83mm" fill="black" stoke-width="0"/>
<circle cx="159.452mm" cy="88.8967mm" r="2.83mm" fill="black" stoke-width="0"/>
<circle cx="173.563mm" cy="88.8967mm" r="2.83mm" fill="black" stoke-width="0"/>
<circle cx="187.674mm" cy="88.8967mm" r="2.83mm" fill="black" stoke-width="0"/>
<circle cx="201.786mm" cy="88.8967mm" r="2.83mm" fill="black" stoke-width="0"/>
<circle cx="215.897mm" cy="88.8967mm" r="2.83mm" fill="black" stoke-width="0"/>
<circle cx="230.008mm" cy="88.8967mm" r="4.23mm" fill="black" stoke-width="0"/>
<circle cx="244.119mm" cy="88.8967mm" r="2.83mm" fill="black" stoke-width="0"/>
<circle cx="258.23mm" cy="88.8967mm" r="4.23mm" fill="black" stoke-width="0"/>
<circle cx="4.23mm" cy="103.008mm" r="2.83mm" fill="black" stoke-width="0"/>
<circle cx="18.3411mm" cy="103.008mm" r="2.83mm" fill="black" stoke-width="0"/>
<circle cx="32.4522mm" cy="103.008mm" r="2.83mm" fill="black" stoke-width="0"/>
<circle cx="46.5633mm" cy="103.008mm" r="2.83mm" fill="black" stoke-width="0"/>
<circle cx="60.6744mm" cy="103.008mm" r="2.83mm" fill="black" stoke-width="0"/>
<circle cx="74.7856mm" cy="103.008mm" r="2.83mm" fill="black" stoke-width="0"/>
<circle cx="88.8967mm" cy="103.008mm" r="2.83mm" fill="black" stoke-width="0"/>
<circle cx="103.008mm" cy="103.008mm" r="4.23mm" fill="black" stoke-width="0"/>
<circle cx="117.119mm" cy="103.008mm" r="2.83mm" fill="black" stoke-width="0"/>
<circle cx="131.23mm" cy="103.008mm" r="4.23mm" fill="black" stoke-width="0"/>
<circle cx="145.341mm" cy="103.008mm" r="2.83mm" fill="black" stoke-width="0"/>
<circle cx="159.452mm" cy="103.008mm" r="4.23mm" fill="black" stoke-width="0"/>
<circle cx="173.563mm" cy="103.008mm" r="2.83mm" fill="black" stoke-width="0"/>
<circle cx="187.674mm" cy="103.008mm" r="2.83mm" fill="black" stoke-width="0"/>
<circle cx="201.786mm" cy="103.008mm" r="4.23mm" fill="black" stoke-width="0"/>
<circle cx="215.897mm" cy="103.008mm" r="4.23mm" fill="black" stoke-width="0"/>
<circle cx="230.008mm" cy="103.008mm" r="4.23mm" fill="black" stoke-width="0"/>
<circle cx="244.119mm" cy="103.008mm" r="4.23mm" fill="black" stoke-width="0"/>
<circle cx="258.23mm" cy="103.008mm" r="2.83mm" fill="black" stoke-width="0"/>
<circle cx="4.23mm" cy="117.119mm" r="2.83mm" fill="black" stoke-width="0"/>
<circle cx="18.3411mm" cy="117.119mm" r="4.23mm" fill="black" stoke-width="0"/>
<circle cx="32.4522mm" cy="117.119mm" r="2.83mm" fill="black" stoke-width="0"/>
<circle cx="46.5633mm" cy="117.119mm" r="4.23mm" fill="black" stoke-width="0"/>
<circle cx="60.6744mm" cy="117.119mm" r="2.83mm" fill="black" stoke-width="0"/>
<circle cx="74.7856mm" cy="117.119mm" r="2.83mm" fill="black" stoke-width="0"/>
<circle cx="88.8967mm" cy="117.119mm" r="4.23mm" fill="black" stoke-width="0"/>
<circle cx="103.008mm" cy="117.119mm" r="2.83mm" fill="black" stoke-width="0"/>
<circle cx="117.119mm" cy="117.119mm" r="4.23mm" fill="black" stoke-width="0"/>
<circle cx="131.23mm" cy="117.119mm" r="4.23mm" fill="black" stoke-width="0"/>
<circle cx="145.341mm" cy="117.119mm" r="4.23mm" fill="black" stoke-width="0"/>
<circle cx="159.452mm" cy="117.119mm" r="4.23mm" fill="black" stoke-width="0"/>
<circle cx="173.563mm" cy="117.119mm" r="4.23mm" fill="black" stoke-width="0"/>
<circle cx="187.674mm" cy="117.119mm" r="2.83mm" fill="black" stoke-width="0"/>
<circle cx="201.786mm" cy="117.119mm" r="2.83mm" fill="black" stoke-width="0"/>
<circle cx="215.897mm" cy="117.119mm" r="2.83mm" fill="black" stoke-width="0"/>
<circle cx="230.008mm" cy="117.119mm" r="4.23mm" fill="black" stoke-width="0"/>
<circle cx="244.119mm" cy="117.119mm" r="4.23mm" fill="black" stoke-width="0"/>
<circle cx="258.23mm" cy="117.119mm" r="2.83mm" fill="black" stoke-width="0"/>
<circle cx="4.23mm" cy="131.23mm" r="2.83mm" fill="black" stoke-width="0"/>
<circle cx="18.3411mm" cy="131.23mm" r="2.83mm" fill="black" stoke-width="0"/>
<circle cx="32.4522mm" cy="131.23mm" r="2.83mm" fill="black" stoke-width="0"/>
<circle cx="46.5633mm" cy="131.23mm" r="4.23mm" fill="black" stoke-width="0"/>
<circle cx="60.6744mm" cy="131.23mm" r="2.83mm" fill="black" stoke-width="0"/>
<circle cx="74.7856mm" cy="131.23mm" r="4.23mm" fill="black" stoke-width="0"/>
<circle cx="88.8967mm" cy="131.23mm" r="2.83mm" fill="black" stoke-width="0"/>
<circle cx="103.008mm" cy="131.23mm" r="4.23mm" fill="black" stoke-width="0"/>
<circle cx="117.119mm" cy="131.23mm" r="2.83mm" fill="black" stoke-width="0"/>
<circle cx="131.23mm" cy="131.23mm" r="4.23mm" fill="black" stoke-width="0"/>
<circle cx="145.341mm" cy="131.23mm" r="4.23mm" fill="black" stoke-width="0"/>
<circle cx="159.452mm" cy="131.23mm" r="2.83mm" fill="black" stoke-width="0"/>
<circle cx="173.563mm" cy="131.23mm" r="4.23mm" fill="black" stoke-width="0"/>
<circle cx="187.674mm" cy="131.23mm" r="4.23mm" fill="black" stoke-width="0"/>
<circle cx="201.786mm" cy="131.23mm" r="4.23mm" fill="black" stoke-width="0"/>
<circle cx="215.897mm" cy="131.23mm" r="4.23mm" fill="black" stoke-width="0"/>
<circle cx="230.008mm" cy="131.23mm" r="2.83mm" fill="black" stoke-width="0"/>
<circle cx="244.119mm" cy="131.23mm" r="4.23mm" fill="black" stoke-width="0"/>
<circle cx="258.23mm" cy="131.23mm" r="2.83mm" fill="black" stoke-width="0"/>
<text x="1mm" y="144.69mm" font-size="8mm">Distance between circle centers: 14.111 mm. Long radius: 4.230 mm. Short radius: 2.830 mm.</text>
</svg>
